# xmcd
# 
# Track frame offsets:
#     150
#     26867
#     46085
#     69290
#     92977
#     114205
#     139227
#     165417
#     193427
#     222600
#     268535
# 
# Disc length: 4440
# 
# Revision: 9
# Processed by: cddbd v1.5.1PL2 Copyright (c) Steve Scherf et al.
# Submitted via: BonkEnc v1.0beta4
# 
DISCID=a111560b
DTITLE=globe - globe decade -single history 1995-2004- disc1
DYEAR=2005
DGENRE=JPop
TTITLE0=Feel Like dance
TTITLE1=Joy to the love〔globe〕
TTITLE2=SWEET PAIN
TTITLE3=DEPARTURES〔RADIO EDIT〕
TTITLE4=FREEDOM〔RADIO EDIT〕
TTITLE5=Is this love
TTITLE6=Can't Stop Fallin'in Love
TTITLE7=FACE
TTITLE8=FACES PLACES
TTITLE9=Anytime smokin' cigarette
TTITLE10=CCCD DATA
EXTD=YEAR: 2005
EXTT0=
EXTT1=
EXTT2=
EXTT3=
EXTT4=
EXTT5=
EXTT6=
EXTT7=
EXTT8=
EXTT9=
EXTT10=
PLAYORDER=
